<?xml version="1.0" standalone="no"?><!DOCTYPE svg PUBLIC "-//W3C//DTD SVG 1.1//EN" "http://www.w3.org/Graphics/SVG/1.1/DTD/svg11.dtd"><svg t="1555315023395" class="icon" style="" viewBox="0 0 1034 1024" version="1.1" xmlns="http://www.w3.org/2000/svg" p-id="1294" xmlns:xlink="http://www.w3.org/1999/xlink" width="13" height="13"><defs><style type="text/css"></style></defs><path d="M911.36 609.28c0 46.08-35.84 81.92-81.92 81.92-46.08 0-81.92-35.84-81.92-81.92s35.84-81.92 81.92-81.92c40.96 0 81.92 35.84 81.92 81.92z m-665.6 0c0 46.08-35.84 81.92-81.92 81.92-46.08 0-81.92-35.84-81.92-81.92s35.84-81.92 81.92-81.92c46.08 0 81.92 35.84 81.92 81.92zM97.28 481.28C153.6 471.04 266.24 460.8 307.2 445.44 348.16 435.2 419.84 358.4 604.16 358.4c163.84 0 225.28 61.44 286.72 76.8 0 0 87.04 15.36 97.28 20.48s46.08 20.48 46.08 35.84v87.04s-5.12 30.72-30.72 30.72l-66.56 10.24c5.12-76.8-51.2-122.88-112.64-122.88s-112.64 51.2-112.64 112.64v25.6H271.36V614.4c0-66.56-51.2-112.64-112.64-112.64-61.44 0-112.64 51.2-112.64 112.64v20.48s-46.08-5.12-46.08-66.56c10.24-51.2 51.2-81.92 97.28-87.04z m696.32-35.84s10.24 0 10.24-10.24-51.2-40.96-133.12-51.2c-10.24 15.36-20.48 35.84-20.48 66.56l143.36-5.12zM419.84 455.68l215.04-5.12c5.12-20.48 10.24-51.2 20.48-66.56h-46.08c-81.92 0-179.2 35.84-199.68 56.32-5.12-5.12-20.48 15.36 10.24 15.36z" p-id="1295"></path></svg>